#!OML:ASF H:\Terrain\Patient Classification 1\Takeo\Monday\TakeoMonday.ASF
:FULLY-SPECIFIED
:DEGREES
1681
root 9.94297 17.5596 -1.75888 -8.67236 -29.7158 2.98135
lowerback 13.4353 -1.67752 0.243373
upperback 7.34797 -2.31664 -0.976896
thorax 0.139846 -1.1854 -0.851552
lowerneck -13.1789 3.72845 0.182904
upperneck 3.6261 5.13163 -2.74928
head 3.61714 2.40857 -0.574016
rclavicle 1.0461e-014 -4.57205e-015
rhumerus -55.2286 16.4401 -93.63
rradius 116.194
rwrist 3.15919
rhand -28.0829 31.0733
rfingers 7.12502
rthumb -1.46597 1.09857
lclavicle 1.0461e-014 -4.57205e-015
lhumerus -39.3864 -12.9796 98.4969
lradius 103.439
lwrist 20.3298
lhand -26.821 1.69503
lfingers 7.12502
lthumb -0.247234 31.6746
rfemur 1.43154 -2.25158 18.5934
rtibia 26.5356
rfoot -20.491 -19.845
rtoes 1.44878
lfemur -11.7596 1.5618 -18.0316
ltibia 24.2558
lfoot -3.15439 20.3483
ltoes 3.90099
1682
root 9.92897 17.5721 -1.76991 -9.00731 -29.7597 3.34849
lowerback 13.2353 -1.66523 0.0844526
upperback 7.23513 -2.31655 -1.00855
thorax 0.132376 -1.18823 -0.798967
lowerneck -13.06 3.76387 0.287353
upperneck 3.88504 5.17949 -2.87278
head 3.69441 2.42631 -0.630013
rclavicle 7.25564e-015 2.08724e-015
rhumerus -54.9403 16.4765 -93.813
rradius 115.929
rwrist 3.25543
rhand -28.2059 31.0509
rfingers 7.12502
rthumb -1.58481 1.07707
lclavicle 7.25564e-015 2.08724e-015
lhumerus -39.3207 -13.2989 98.5405
lradius 103.244
lwrist 20.3127
lhand -26.3476 2.21013
lfingers 7.12502
lthumb 0.210062 32.1898
rfemur 1.67596 -2.57692 18.1862
rtibia 26.2247
rfoot -20.0177 -19.6172
rtoes 0.878483
lfemur -11.2491 1.39371 -18.3302
ltibia 23.6152
lfoot -2.97549 20.6952
ltoes 3.80843
1683
root 9.91303 17.58 -1.77601 -8.94159 -29.9612 3.06641
lowerback 12.938 -1.56156 0.563248
upperback 7.08116 -2.12132 -0.828043
thorax 0.1227 -1.07922 -0.910921
lowerneck -12.7325 3.71357 -0.0735569
upperneck 4.05499 5.15948 -2.6658
head 3.6709 2.42122 -0.503775
rclavicle 5.66536e-014 -1.78906e-015
rhumerus -54.7581 16.3913 -93.7099
rradius 115.647
rwrist 3.23659
rhand -28.3571 31.1044
rfingers 7.12502
rthumb -1.73076 1.13163
lclavicle 5.66536e-014 -1.78906e-015
lhumerus -39.3558 -13.7111 98.8835
lradius 103.073
lwrist 20.4264
lhand -26.1397 2.21449
lfingers 7.12502
lthumb 0.41078 32.1938
rfemur 1.91086 -2.49287 18.5337
rtibia 25.8795
rfoot -19.9105 -19.469
rtoes 0.505666
lfemur -10.8148 1.4645 -17.9512
ltibia 22.9563
lfoot -2.77837 20.867
ltoes 3.80091
1684
root 9.89594 17.5898 -1.7848 -8.85388 -30.1798 2.77763
lowerback 12.681 -1.4704 0.883845
upperback 6.94219 -1.96235 -0.651691
thorax 0.113823 -0.993184 -0.932314
lowerneck -12.7475 3.75724 -0.178396
upperneck 4.42704 5.23133 -2.46721
head 3.79663 2.45973 -0.410306
rclavicle 4.50744e-014 -8.94531e-015
rhumerus -54.6402 16.4968 -93.6358
rradius 115.496
rwrist 3.02734
rhand -28.2932 31.1048
rfingers 7.12502
rthumb -1.66913 1.13159
lclavicle 4.50744e-014 -8.94531e-015
lhumerus -39.3332 -14.0008 99.1565
lradius 102.9
lwrist 20.4215
lhand -26.5187 1.78389
lfingers 7.12502
lthumb 0.0447482 31.7636
rfemur 2.14882 -2.25004 18.9474
rtibia 25.5279
rfoot -19.9946 -19.5171
rtoes -0.207147
lfemur -10.3319 1.42873 -17.5421
ltibia 22.1772
lfoot -2.51954 21.1603
ltoes 4.27639
1685
root 9.8762 17.6062 -1.79437 -8.9032 -30.371 2.82434
lowerback 12.3951 -1.40664 0.74235
upperback 6.80045 -1.89016 -0.506915
thorax 0.128978 -0.962253 -0.716527
lowerneck -12.737 3.90587 0.154372
upperneck 4.69376 5.40348 -2.70135
head 3.91182 2.53667 -0.531851
rclavicle 4.77083e-015 3.18055e-015
rhumerus -54.4836 16.8481 -93.6575
rradius 115.311
rwrist 2.85716
rhand -28.3332 31.0032
rfingers 7.12502
rthumb -1.70772 1.03025
lclavicle 4.77083e-015 3.18055e-015
lhumerus -39.1991 -14.0909 99.3467
lradius 102.676
lwrist 20.3896
lhand -26.7302 1.73618
lfingers 7.12502
lthumb -0.159536 31.7159
rfemur 2.3225 -2.11923 18.9949
rtibia 25.2065
rfoot -19.8668 -19.621
rtoes -0.193368
lfemur -9.80962 1.08715 -17.4717
ltibia 21.3034
lfoot -2.25291 21.7377
ltoes 5.12117
1686
root 9.85753 17.6199 -1.78596 -9.70693 -30.3947 3.95059
lowerback 12.147 -1.26987 -0.199991
upperback 6.68727 -1.80607 -0.595996
thorax 0.169651 -0.941925 -0.29418
lowerneck -12.1789 4.01014 0.268417
upperneck 4.61703 5.54314 -2.98441
head 3.79096 2.6009 -0.647812
rclavicle 1.34677e-014 1.66979e-014
rhumerus -54.2751 17.1242 -93.5929
rradius 114.937
rwrist 2.80905
rhand -28.3694 30.8967
rfingers 7.12502
rthumb -1.74266 0.924054
lclavicle 1.34677e-014 1.66979e-014
lhumerus -39.3183 -14.0696 99.7748
lradius 102.528
lwrist 20.3559
lhand -26.6727 1.94831
lfingers 7.12502
lthumb -0.103963 31.928
rfemur 2.8522 -2.27355 17.8305
rtibia 24.8276
rfoot -19.6292 -19.2032
rtoes 0.737958
lfemur -8.98392 0.822385 -18.5211
ltibia 20.5197
lfoot -2.07491 22.1903
ltoes 5.77262
